In Time (2011) 1080p MKV x264 AC3+DTS Eng NL Subs
.
[IMG]http://img843.imageshack.us/img843/6463/it2011.jpg[/IMG]
.
Verenigde Staten
Sciencefiction / Thriller
109 minuten

geregisseerd door Andrew Niccol
met Amanda Seyfried, Justin Timberlake en Cillian Murphy

Welkom in een wereld waar tijd het ultieme betaalmiddel is geworden. Het verouderingsproces stopt op de leeftijd van 25 jaar, maar er zit een addertje onder het gras: je bent genetisch gemanipuleerd om nog ÚÚn jaar te leven, tenzij je je nakende dood kan afkopen. De rijken ôverdienenö tientallen jaren per keer (en blijven 25 jaar), waardoor ze nagenoeg onsterfelijk worden, terwijl de rest genoeg uren bij elkaar smeekt, leent of steelt om de dag door te komen. Wanneer een jonge man (Timberlake) in het bezit komt van een fortuin aan tijd, wordt hij valselijk beschuldigd van moord. Hij wordt gedwongen op de vlucht te slaan met een mooie gijzelaar (Seyfried). De liefde van het duo, dat van minuut tot minuut leeft, wordt een sterk wapen in hun oorlog tegen het systeem.

Momenteel te zien in 3 bioscopen
Vanaf 27 maart te koop op DVD en Blu-Ray
. 
http://www.moviemeter.nl/film/75622
.
PLOT
.
In a future where people stop aging at 25, but are engineered to live only one more year, having the means to buy your way out of the situation is a shot at immortal youth. Here, Will Salas finds himself accused of murder and on the run with a hostage - a connection that becomes an important part of the way against the system. 
. 
http://www.imdb.com/title/tt1637688/
.
INFO
.
Source: HDChina
Video: 1920x1080
Audio: English AC3+DTS
Susb: Dutch, English, English FHI
NL Vertaling SRT-TEAM
.
Enjoy
.
Format                           : Matroska
Format version                   : Version 2
File size                        : 11.2 GiB
Duration                         : 1h 49mn
Overall bit rate                 : 14.7 Mbps
Encoded date                     : UTC 2012-01-19 13:17:04
Writing application              : mkvmerge v5.2.0 ('I can't explain') built on Dec 18 2011 18:12:03
Writing library                  : libebml v1.2.3 + libmatroska v1.3.0

Video
ID                               : 1
Format                           : AVC
Format/Info                      : Advanced Video Codec
Format profile                   : High@L4.1
Format settings, CABAC           : Yes
Format settings, ReFrames        : 5 frames
Codec ID                         : V_MPEG4/ISO/AVC
Duration                         : 1h 49mn
Bit rate                         : 12.6 Mbps
Width                            : 1 920 pixels
Height                           : 816 pixels
Display aspect ratio             : 2.35:1
Frame rate                       : 23.976 fps
Color space                      : YUV
Chroma subsampling               : 4:2:0
Bit depth                        : 8 bits
Scan type                        : Progressive
Bits/(Pixel*Frame)               : 0.335
Stream size                      : 9.38 GiB (83%)
Writing library                  : x264 core 120 r2145 748fe16
Encoding settings                : cabac=1 / ref=5 / deblock=1:-3:-3 / analyse=0x3:0x133 / me=umh / subme=10 / psy=1 / psy_rd=0.90:0.00 / mixed_ref=1 / me_range=64 / chroma_me=1 / trellis=2 / 8x8dct=1 / cqm=0 / deadzone=21,11 / fast_pskip=0 / chroma_qp_offset=-2 / threads=12 / sliced_threads=0 / nr=0 / decimate=0 / interlaced=0 / bluray_compat=0 / constrained_intra=0 / bframes=8 / b_pyramid=2 / b_adapt=2 / b_bias=0 / direct=3 / weightb=1 / open_gop=0 / weightp=2 / keyint=240 / keyint_min=24 / scenecut=40 / intra_refresh=0 / rc=2pass / mbtree=0 / bitrate=12588 / ratetol=1.0 / qcomp=0.75 / qpmin=0 / qpmax=69 / qpstep=4 / cplxblur=20.0 / qblur=0.5 / ip_ratio=1.40 / pb_ratio=1.25 / aq=1:1.10
Language                         : English
Default                          : No
Forced                           : No

Audio #1
ID                               : 2
Format                           : DTS
Format/Info                      : Digital Theater Systems
Codec ID                         : A_DTS
Duration                         : 1h 49mn
Bit rate mode                    : Constant
Bit rate                         : 1 510 Kbps
Channel(s)                       : 6 channels
Channel positions                : Front: L C R, Side: L R, LFE
Sampling rate                    : 48.0 KHz
Bit depth                        : 24 bits
Compression mode                 : Lossy
Stream size                      : 1.15 GiB (10%)
Title                            : DTS
Language                         : English
Default                          : Yes
Forced                           : No

Audio #2
ID                               : 3
Format                           : AC-3
Format/Info                      : Audio Coding 3
Mode extension                   : CM (complete main)
Codec ID                         : A_AC3
Duration                         : 1h 49mn
Bit rate mode                    : Constant
Bit rate                         : 640 Kbps
Channel(s)                       : 6 channels
Channel positions                : Front: L C R, Side: L R, LFE
Sampling rate                    : 48.0 KHz
Bit depth                        : 16 bits
Compression mode                 : Lossy
Stream size                      : 500 MiB (4%)
Title                            : AC3
Language                         : English
Default                          : No
Forced                           : No

Text #1
ID                               : 4
Format                           : UTF-8
Codec ID                         : S_TEXT/UTF8
Codec ID/Info                    : UTF-8 Plain Text
Language                         : Dutch
Default                          : Yes
Forced                           : No

Text #2
ID                               : 5
Format                           : UTF-8
Codec ID                         : S_TEXT/UTF8
Codec ID/Info                    : UTF-8 Plain Text
Language                         : English
Default                          : No
Forced                           : No

Text #3
ID                               : 6
Format                           : UTF-8
Codec ID                         : S_TEXT/UTF8
Codec ID/Info                    : UTF-8 Plain Text
Title                            : FHI
Language                         : English
Default                          : No
Forced                           : No


